<svg xmlns="http://www.w3.org/2000/svg"  viewBox="0 0 100 100" width="500px" height="500px"><path fill="#c7ede6" d="M88.699,56.831c0.3-0.616,0.566-1.264,0.796-1.943c2.633-7.77-1.349-17.078-9.733-19.325	C78.854,24.18,70.854,16.37,61.82,15.038c-10.341-1.525-19.814,5.044-22.966,15.485c-3.799-1.346-7.501-1.182-10.99,0.857	c-1.583,0.732-3.031,1.812-4.33,3.233c-1.907,2.086-3.147,4.719-3.652,7.495c-0.748,0.118-1.483,0.236-2.176,0.484	c-4.04,1.449-6.589,4.431-7.288,8.923c-0.435,2.797,0.443,5.587,0.933,6.714c1.935,4.455,6.422,6.98,10.981,6.312	c0.227-0.033,0.557,0.069,0.752,0.233c0.241,7.12,3.698,13.417,8.884,17.014c8.321,5.772,19.027,3.994,25.781-3.921	c2.894,2.96,6.338,4.398,10.384,3.876c4.023-0.519,7.147-2.739,9.426-6.349c1.053,0.283,2.051,0.691,3.083,0.804	c4.042,0.442,7.324-1.165,9.732-4.8c0.922-1.391,1.793-3.194,1.793-6.354C92.169,61.788,90.874,58.821,88.699,56.831z"/><path fill="#fff" d="M18.362,48.867H8.332c-0.276,0-0.5-0.224-0.5-0.5s0.224-0.5,0.5-0.5h10.03c0.276,0,0.5,0.224,0.5,0.5	S18.639,48.867,18.362,48.867z M21.244,48.867h-1.446c-0.276,0-0.5-0.224-0.5-0.5s0.224-0.5,0.5-0.5h1.446	c0.276,0,0.5,0.224,0.5,0.5S21.52,48.867,21.244,48.867z M25.298,48.867h-2.546c-0.276,0-0.5-0.224-0.5-0.5s0.224-0.5,0.5-0.5h2.546	c0.276,0,0.5,0.224,0.5,0.5S25.574,48.867,25.298,48.867z M25.298,50.732h-9.616c-0.276,0-0.5-0.224-0.5-0.5s0.224-0.5,0.5-0.5	h9.616c0.276,0,0.5,0.224,0.5,0.5S25.574,50.732,25.298,50.732z M13.95,50.732h-0.58c-0.276,0-0.5-0.224-0.5-0.5s0.224-0.5,0.5-0.5	h0.58c0.276,0,0.5,0.224,0.5,0.5S14.227,50.732,13.95,50.732z M11.573,50.732h-1.456c-0.276,0-0.5-0.224-0.5-0.5s0.224-0.5,0.5-0.5	h1.456c0.276,0,0.5,0.224,0.5,0.5S11.85,50.732,11.573,50.732z M20.709,47.002h-5.027c-0.276,0-0.5-0.224-0.5-0.5s0.224-0.5,0.5-0.5	h5.027c0.276,0,0.5,0.224,0.5,0.5S20.985,47.002,20.709,47.002z M20.709,45.137h-1.257c-0.276,0-0.5-0.224-0.5-0.5	s0.224-0.5,0.5-0.5h1.257c0.276,0,0.5,0.224,0.5,0.5S20.985,45.137,20.709,45.137z M17.441,52.597h-1.759	c-0.276,0-0.5-0.224-0.5-0.5s0.224-0.5,0.5-0.5h1.759c0.276,0,0.5,0.224,0.5,0.5S17.717,52.597,17.441,52.597z M74.388,26.546	h-10.03c-0.276,0-0.5-0.224-0.5-0.5s0.224-0.5,0.5-0.5h10.03c0.276,0,0.5,0.224,0.5,0.5S74.665,26.546,74.388,26.546z M77.271,26.546h-1.446c-0.276,0-0.5-0.224-0.5-0.5s0.224-0.5,0.5-0.5h1.446c0.276,0,0.5,0.224,0.5,0.5S77.547,26.546,77.271,26.546	z M81.325,26.546h-2.546c-0.276,0-0.5-0.224-0.5-0.5s0.224-0.5,0.5-0.5h2.546c0.276,0,0.5,0.224,0.5,0.5	S81.602,26.546,81.325,26.546z M81.325,28.411h-9.617c-0.276,0-0.5-0.224-0.5-0.5s0.224-0.5,0.5-0.5h9.617	c0.276,0,0.5,0.224,0.5,0.5S81.602,28.411,81.325,28.411z M69.977,28.411h-0.58c-0.276,0-0.5-0.224-0.5-0.5s0.224-0.5,0.5-0.5h0.58	c0.276,0,0.5,0.224,0.5,0.5S70.254,28.411,69.977,28.411z M67.6,28.411h-1.456c-0.276,0-0.5-0.224-0.5-0.5s0.224-0.5,0.5-0.5H67.6	c0.276,0,0.5,0.224,0.5,0.5S67.877,28.411,67.6,28.411z M76.735,24.681h-5.028c-0.276,0-0.5-0.224-0.5-0.5s0.224-0.5,0.5-0.5h5.028	c0.276,0,0.5,0.224,0.5,0.5S77.012,24.681,76.735,24.681z M76.735,22.816h-1.257c-0.276,0-0.5-0.224-0.5-0.5s0.224-0.5,0.5-0.5	h1.257c0.276,0,0.5,0.224,0.5,0.5S77.012,22.816,76.735,22.816z M73.466,30.276h-1.759c-0.276,0-0.5-0.224-0.5-0.5	s0.224-0.5,0.5-0.5h1.759c0.276,0,0.5,0.224,0.5,0.5S73.743,30.276,73.466,30.276z"/><path fill="#fdfcef" d="M77.959,53.7c0,0,10.616,0,10.681,0c2.452,0,4.439-1.987,4.439-4.439	c0-2.139-1.513-3.924-3.527-4.344c0.023-0.187,0.039-0.377,0.039-0.57c0-2.539-2.058-4.598-4.597-4.598	c-1.499,0-2.827,0.721-3.666,1.831c-0.215-2.826-2.739-5.007-5.693-4.646c-2.16,0.264-3.947,1.934-4.344,4.073	c-0.127,0.686-0.114,1.352,0.013,1.977c-0.579-0.624-1.403-1.016-2.322-1.016c-1.68,0-3.052,1.308-3.16,2.961	c-0.763-0.169-1.593-0.158-2.467,0.17c-1.671,0.627-2.861,2.2-2.93,3.983c-0.099,2.533,1.925,4.617,4.435,4.617	c0.191,0,0.861,0,1.015,0h9.218"/><path fill="#472b29" d="M88.641,54.2H77.959c-0.276,0-0.5-0.224-0.5-0.5s0.224-0.5,0.5-0.5H88.64	c2.172,0,3.939-1.767,3.939-3.939c0-1.854-1.316-3.476-3.129-3.855c-0.254-0.053-0.425-0.292-0.394-0.55	c0.021-0.168,0.035-0.337,0.035-0.51c0-2.259-1.838-4.098-4.098-4.098c-1.292,0-2.483,0.595-3.267,1.632	c-0.126,0.166-0.34,0.237-0.54,0.179c-0.2-0.059-0.342-0.235-0.358-0.442c-0.094-1.238-0.701-2.401-1.664-3.19	c-0.973-0.798-2.207-1.149-3.471-0.997c-1.947,0.238-3.556,1.747-3.913,3.668c-0.112,0.601-0.108,1.201,0.011,1.786	c0.045,0.22-0.062,0.442-0.261,0.545c-0.199,0.102-0.443,0.06-0.595-0.104c-0.513-0.552-1.208-0.856-1.956-0.856	c-1.4,0-2.569,1.095-2.661,2.494c-0.01,0.146-0.082,0.28-0.199,0.367s-0.268,0.118-0.408,0.088c-0.755-0.167-1.468-0.118-2.183,0.15	c-1.498,0.562-2.545,1.982-2.606,3.535c-0.042,1.083,0.347,2.109,1.096,2.889c0.75,0.78,1.758,1.209,2.84,1.209h10.233	c0.276,0,0.5,0.224,0.5,0.5s-0.224,0.5-0.5,0.5H64.86c-1.356,0-2.621-0.539-3.561-1.516c-0.939-0.977-1.428-2.263-1.375-3.621	c0.076-1.949,1.384-3.73,3.254-4.432c0.72-0.27,1.464-0.363,2.221-0.279c0.362-1.655,1.842-2.884,3.582-2.884	c0.603,0,1.194,0.151,1.72,0.431c0.004-0.327,0.036-0.655,0.097-0.983c0.436-2.346,2.399-4.188,4.775-4.478	c1.54-0.191,3.039,0.244,4.226,1.216c0.899,0.737,1.543,1.742,1.847,2.851c0.919-0.807,2.094-1.256,3.347-1.256	c2.811,0,5.098,2.287,5.098,5.098c0,0.064-0.001,0.128-0.004,0.192c2.048,0.628,3.492,2.547,3.492,4.723	C93.579,51.984,91.364,54.2,88.641,54.2z"/><path fill="#fdfcef" d="M72.386,39.921c-1.642-0.108-3.055,1.026-3.157,2.533c-0.013,0.187-0.004,0.371,0.023,0.55	c-0.317-0.358-0.786-0.6-1.324-0.636c-0.985-0.065-1.836,0.586-1.959,1.471c-0.179-0.049-0.366-0.082-0.56-0.095	c-1.437-0.094-2.674,0.898-2.762,2.216"/><path fill="#472b29" d="M62.648,46.211c-0.006,0-0.012,0-0.017,0c-0.138-0.009-0.242-0.128-0.233-0.266	c0.098-1.454,1.453-2.556,3.028-2.449c0.116,0.008,0.234,0.022,0.353,0.045c0.26-0.878,1.158-1.485,2.166-1.421	c0.377,0.025,0.73,0.139,1.035,0.33c0-0.004,0-0.008,0-0.012c0.111-1.641,1.652-2.872,3.423-2.765	c0.138,0.009,0.242,0.128,0.233,0.266c-0.009,0.138-0.131,0.243-0.266,0.233c-1.514-0.102-2.799,0.933-2.891,2.3	c-0.011,0.165-0.004,0.332,0.021,0.496c0.017,0.109-0.041,0.217-0.141,0.264c-0.098,0.047-0.219,0.023-0.293-0.061	c-0.285-0.321-0.705-0.522-1.154-0.552c-0.846-0.056-1.589,0.496-1.695,1.256c-0.01,0.071-0.05,0.134-0.109,0.174	c-0.06,0.04-0.135,0.051-0.203,0.033c-0.173-0.046-0.345-0.076-0.511-0.086c-1.303-0.085-2.417,0.805-2.497,1.983	C62.889,46.11,62.778,46.211,62.648,46.211z"/><path fill="#3231c7" d="M72.099,38.56v25.72c0,1.43-0.45,2.77-1.21,3.87c-1.23,1.8-3.3,2.98-5.64,2.98h-25.72	c-3.76,0-6.84-3.08-6.84-6.85V38.56c0-2.24,1.09-4.23,2.76-5.48c1.14-0.86,2.55-1.37,4.08-1.37h25.72c0.76,0,1.49,0.12,2.17,0.36	c1.52,1.33,2.96,2.76,4.3,4.27C71.968,37.04,72.099,37.78,72.099,38.56z"/><path fill="#7228ad" d="M72.099,48.75v15.53c0,1.43-0.45,2.77-1.21,3.87c-1.23,1.8-3.3,2.98-5.64,2.98h-25.72	c-3.76,0-6.84-3.08-6.84-6.85V38.56c0-2.24,1.09-4.23,2.76-5.48c1.14-0.86,2.55-1.37,4.08-1.37h15.38	C62.069,35.72,68.029,41.63,72.099,48.75z"/><path fill="#b11e93" d="M70.889,68.15c-1.23,1.8-3.3,2.98-5.64,2.98h-25.72c-3.76,0-6.84-3.08-6.84-6.85V38.56	c0-2.24,1.09-4.23,2.76-5.48C55,34,70,48,70.889,68.15z"/><path fill="#db1a58" d="M63.998,71v0.13h-24.47c-3.76,0-6.84-3.08-6.84-6.85V40h0.31C50.089,40,63.998,53.91,63.998,71z"/><path fill="#e4273e" d="M56.998,71v0.13h-17.47c-3.76,0-6.84-3.08-6.84-6.85V47.01c0.1-0.01,0.21-0.01,0.31-0.01	C46.228,47,56.998,57.77,56.998,71z"/><path fill="#f47c22" d="M49.998,71v0.13h-10.47c-3.76,0-6.84-3.08-6.84-6.85V54.01c0.1-0.01,0.21-0.01,0.31-0.01	C42.369,54,49.998,61.63,49.998,71z"/><path fill="#ef9922" d="M43.998,71v0.13h-4.47c-3.76,0-6.84-3.08-6.84-6.85v-4.27c0.1-0.01,0.21-0.01,0.31-0.01	C38.518,60,43.998,65.48,43.998,71z"/><path fill="#472b29" d="M86.27,47.358c-0.018,0-0.037-0.002-0.056-0.006c-0.135-0.031-0.219-0.165-0.188-0.299	c0.045-0.199,0.113-0.393,0.201-0.574c0.716-1.484,2.651-2.054,4.317-1.268c0.125,0.059,0.179,0.208,0.12,0.333	c-0.059,0.126-0.209,0.177-0.333,0.12c-1.417-0.667-3.056-0.204-3.654,1.033c-0.072,0.148-0.127,0.305-0.164,0.468	C86.486,47.279,86.383,47.358,86.27,47.358z"/><path fill="#472b29" d="M65.256,71.829H39.532c-4.162,0-7.548-3.386-7.548-7.547V38.559c0-4.162,3.386-7.547,7.548-7.547	h25.722c4.162,0,7.547,3.386,7.547,7.547v25.722C72.802,68.443,69.416,71.829,65.256,71.829z M39.532,32.412	c-3.39,0-6.147,2.757-6.147,6.147v25.722c0,3.39,2.758,6.147,6.147,6.147h25.722c3.39,0,6.147-2.757,6.147-6.147V38.559	c0-3.39-2.757-6.147-6.147-6.147H39.532z"/><path fill="#472b29" d="M64.152,68.663H40.634c-3.024,0-5.484-2.46-5.484-5.484V39.662c0-3.024,2.46-5.484,5.484-5.484	h22.395c0.193,0,0.35,0.157,0.35,0.35s-0.157,0.35-0.35,0.35H40.634c-2.638,0-4.784,2.146-4.784,4.784v23.517	c0,2.638,2.146,4.784,4.784,4.784h23.518c2.638,0,4.784-2.146,4.784-4.784v-13.01c0-0.193,0.157-0.35,0.35-0.35	s0.35,0.157,0.35,0.35v13.01C69.636,66.203,67.176,68.663,64.152,68.663z"/><path fill="#472b29" d="M69.286,48.642c-0.193,0-0.35-0.157-0.35-0.35v-2.503c0-0.193,0.157-0.35,0.35-0.35	s0.35,0.157,0.35,0.35v2.503C69.636,48.485,69.48,48.642,69.286,48.642z M69.286,44.888c-0.193,0-0.35-0.157-0.35-0.35v-1.251	c0-0.193,0.157-0.35,0.35-0.35s0.35,0.157,0.35,0.35v1.251C69.636,44.731,69.48,44.888,69.286,44.888z"/><path fill="none" stroke="#fdfcef" stroke-miterlimit="10" d="M46.5,39.5h12c3.314,0,6,2.686,6,6v12c0,3.314-2.686,6-6,6h-12	c-3.314,0-6-2.686-6-6v-12C40.5,42.186,43.186,39.5,46.5,39.5z"/><circle cx="59" cy="44" r="1.5" fill="none" stroke="#fdfcef" stroke-miterlimit="10"/><circle cx="52.5" cy="51.5" r="6" fill="none" stroke="#fdfcef" stroke-miterlimit="10"/><path fill="#fdfcef" d="M39.12,74.641c1.71,0,3.194,0,3.215,0c1.916,0,3.469-1.52,3.469-3.396	c0-1.636-1.182-3.001-2.756-3.323c0.018-0.143,0.031-0.288,0.031-0.436c0-1.942-1.609-3.517-3.593-3.517	c-1.172,0-2.209,0.551-2.865,1.401c-0.168-2.162-2.141-3.83-4.45-3.554c-1.688,0.202-3.084,1.479-3.395,3.116	c-0.1,0.525-0.089,1.034,0.01,1.512c-0.453-0.477-1.097-0.777-1.814-0.777c-1.313,0-2.385,1.001-2.47,2.265	c-0.596-0.129-1.245-0.121-1.928,0.13c-1.306,0.48-2.236,1.683-2.29,3.047c-0.077,1.937,1.504,3.532,3.467,3.532	c0.149,0,0.673,0,0.794,0h7.204 M33.239,74.641h0.327"/><path fill="#472b29" d="M42.335,75.141H39.12c-0.276,0-0.5-0.224-0.5-0.5s0.224-0.5,0.5-0.5h3.215	c1.637,0,2.969-1.299,2.969-2.896c0-1.363-0.991-2.554-2.356-2.833c-0.256-0.052-0.429-0.293-0.396-0.552	c0.016-0.123,0.027-0.247,0.027-0.374c0-1.664-1.388-3.017-3.093-3.017c-0.977,0-1.877,0.44-2.47,1.207	c-0.126,0.164-0.341,0.233-0.539,0.173c-0.198-0.059-0.339-0.234-0.355-0.44c-0.071-0.913-0.507-1.741-1.227-2.332	c-0.742-0.609-1.687-0.883-2.665-0.764c-1.475,0.177-2.694,1.292-2.963,2.712c-0.084,0.443-0.081,0.887,0.008,1.317	c0.046,0.219-0.06,0.441-0.257,0.545c-0.198,0.104-0.44,0.063-0.595-0.099c-0.38-0.401-0.896-0.622-1.452-0.622	c-1.038,0-1.903,0.79-1.971,1.799c-0.01,0.145-0.082,0.278-0.198,0.366s-0.265,0.119-0.406,0.089	c-0.573-0.125-1.111-0.087-1.65,0.111c-1.129,0.415-1.917,1.459-1.963,2.598c-0.031,0.782,0.252,1.526,0.799,2.096	c0.568,0.591,1.337,0.916,2.167,0.916h7.998c0.276,0,0.5,0.224,0.5,0.5s-0.224,0.5-0.5,0.5h-7.998c-1.089,0-2.142-0.446-2.888-1.224	c-0.737-0.767-1.12-1.771-1.078-2.828c0.061-1.538,1.113-2.943,2.617-3.496c0.548-0.201,1.115-0.276,1.688-0.228	c0.332-1.268,1.507-2.198,2.882-2.198c0.431,0,0.854,0.094,1.24,0.269c0.011-0.199,0.035-0.397,0.073-0.597	c0.35-1.844,1.924-3.291,3.827-3.519c1.249-0.149,2.462,0.2,3.418,0.984c0.668,0.548,1.147,1.254,1.399,2.047	c0.717-0.568,1.61-0.882,2.557-0.882c2.257,0,4.093,1.802,4.093,4.017c0,0.02,0,0.04,0,0.06c1.603,0.52,2.726,2.011,2.726,3.7	C46.305,73.393,44.524,75.141,42.335,75.141z M33.565,75.141h-0.327c-0.276,0-0.5-0.224-0.5-0.5s0.224-0.5,0.5-0.5h0.327	c0.276,0,0.5,0.224,0.5,0.5S33.841,75.141,33.565,75.141z"/><path fill="#472b29" d="M40.785,69.849c-0.018,0-0.036-0.002-0.055-0.006c-0.135-0.03-0.219-0.164-0.189-0.299	c0.035-0.153,0.087-0.301,0.157-0.441c0.555-1.123,2.084-1.537,3.409-0.924c0.125,0.058,0.18,0.207,0.122,0.332	s-0.206,0.179-0.332,0.122c-1.081-0.501-2.315-0.19-2.751,0.692c-0.052,0.104-0.091,0.214-0.116,0.328	C41.002,69.769,40.899,69.849,40.785,69.849z M36.1,75.141h-1.005c-0.276,0-0.5-0.224-0.5-0.5s0.224-0.5,0.5-0.5H36.1	c0.276,0,0.5,0.224,0.5,0.5S36.376,75.141,36.1,75.141z"/></svg>